<?xml version="1.0" encoding="utf-8"?>
<svg viewBox="21.546 0 500 500" xmlns="http://www.w3.org/2000/svg">
  <path d="M 23.112 245.116 C 23.112 115.978 134.15 11.29 271.131 11.29 C 408.108 11.29 519.147 115.978 519.147 245.116 C 519.147 374.255 408.108 478.941 271.131 478.941 C 134.15 478.941 23.112 374.255 23.112 245.116 Z M 271.131 460.8 C 397.481 460.8 499.904 364.235 499.904 245.116 C 499.904 125.993 397.481 29.431 271.131 29.431 C 144.778 29.431 42.354 125.993 42.354 245.116 C 42.354 364.235 144.778 460.8 271.131 460.8 Z" data-fill-palette-color="accent" fill="#000000" stroke="transparent" style="" transform="matrix(1, 0, 0, 1, 5.684341886080802e-14, 0)"/>
  <g transform="matrix(4.610184192657471, 0, 0, 4.346357822418213, 193.33157636719318, 136.63228047836242)" style="">
    <svg viewBox="0 0 31.152910448349104 52.89502808046601" height="52.89502808046601" width="31.152910448349104">
      <g>
        <svg xmlns="http://www.w3.org/2000/svg" version="1.1" x="0" y="0" viewBox="28.99999193045061 22 24.00000806954939 40.75" enable-background="new 0 0 80 80" height="52.89502808046601" width="31.152910448349104" class="icon-dxe-0" data-fill-palette-color="accent" id="dxe-0">
          <g fill="#f84e45" data-fill-palette-color="accent">
            <path fill="#000000" d="M50.627 55H43V53H50.627A0.373 0.373 0 0 0 51 52.626V24.374A0.373 0.373 0 0 0 50.627 24H31V54H29V22H50.627A2.376 2.376 0 0 1 53 24.374V52.627A2.376 2.376 0 0 1 50.627 55" data-fill-palette-color="accent"/>
          </g>
          <g fill="#f84e45" data-fill-palette-color="accent">
            <path fill="#000000" d="M42.606 62.75C42.362 62.75 42.123 62.682 41.914 62.552L29.623 54.944A1.31 1.31 0 0 1 29 53.824V23.567A1.318 1.318 0 0 1 31.008 22.449L43.3 30.057C43.69 30.296 43.924 30.715 43.924 31.176V61.433C43.924 62.159 43.333 62.75 42.606 62.75M31 53.443L41.924 60.205V31.558L31 24.795z" data-fill-palette-color="accent"/>
          </g>
          <g fill="#f84e45" data-fill-palette-color="accent">
            <rect x="39" y="42" fill="#000000" width="2" height="4" data-fill-palette-color="accent"/>
          </g>
        </svg>
      </g>
    </svg>
  </g>
</svg>